<svg xmlns="http://www.w3.org/2000/svg" viewBox="0 0 520 520" role="img" aria-labelledby="title desc">
  <title id="title">EVZA</title>
  <desc id="desc">Logótipo EVZA com sol, letras azuis e ondas do rio</desc>
  <rect width="520" height="520" fill="#fff"/>
  <g fill="none" stroke-linecap="round">
    <path d="M174 205a82 82 0 0 1 164 0" stroke="#FFD612" stroke-width="14"/>
    <path d="M256 73v46" stroke="#FFD612" stroke-width="12"/>
    <path d="M165 105l21 40" stroke="#F28C17" stroke-width="12"/>
    <path d="M99 166l42 15" stroke="#FFD612" stroke-width="12"/>
    <path d="M418 166l-42 15" stroke="#FFD612" stroke-width="12"/>
    <path d="M347 105l-21 40" stroke="#F28C17" stroke-width="12"/>
    <path d="M122 125l25 27" stroke="#F28C17" stroke-width="12"/>
    <path d="M391 125l-25 27" stroke="#F28C17" stroke-width="12"/>
    <path d="M397 208l-30-6" stroke="#F28C17" stroke-width="12"/>
    <path d="M115 208l30-6" stroke="#F28C17" stroke-width="12"/>
  </g>
  <text x="260" y="390"
        text-anchor="middle"
        font-family="Arial Black, Impact, Arial, sans-serif"
        font-size="178"
        font-weight="900"
        fill="#24479D"
        letter-spacing="-8">EVZA</text>
  <g fill="none" stroke="#087DC1" stroke-linecap="round">
    <path d="M7 444c47 20 85 20 132 0 47-20 87-20 134 0 47 20 87 20 134 0 37-16 70-19 106-8" stroke-width="21"/>
    <path d="M68 484c39 16 72 16 111 0 39-16 72-16 111 0 39 16 72 16 111 0" stroke-width="18"/>
    <path d="M149 518c34-15 68-15 102 0 34 15 68 15 102 0" stroke-width="15"/>
  </g>
</svg>
